<svg width="245" height="42" viewBox="0 0 245 42" fill="none" xmlns="http://www.w3.org/2000/svg">
<path d="M7.55859 23.9824V33H2.28516V7.40625H12.2695C14.1914 7.40625 15.8789 7.75781 17.332 8.46094C18.7969 9.16406 19.9219 10.166 20.707 11.4668C21.4922 12.7559 21.8848 14.2266 21.8848 15.8789C21.8848 18.3867 21.0234 20.3672 19.3008 21.8203C17.5898 23.2617 15.2168 23.9824 12.1816 23.9824H7.55859ZM7.55859 19.7109H12.2695C13.6641 19.7109 14.7246 19.3828 15.4512 18.7266C16.1895 18.0703 16.5586 17.1328 16.5586 15.9141C16.5586 14.6602 16.1895 13.6465 15.4512 12.873C14.7129 12.0996 13.6934 11.7012 12.3926 11.6777H7.55859V19.7109ZM24.1523 23.3145C24.1523 21.4277 24.5156 19.7461 25.2422 18.2695C25.9688 16.793 27.0117 15.6504 28.3711 14.8418C29.7422 14.0332 31.3301 13.6289 33.1348 13.6289C35.7012 13.6289 37.793 14.4141 39.4102 15.9844C41.0391 17.5547 41.9473 19.6875 42.1348 22.3828L42.1699 23.6836C42.1699 26.6016 41.3555 28.9453 39.7266 30.7148C38.0977 32.4727 35.9121 33.3516 33.1699 33.3516C30.4277 33.3516 28.2363 32.4727 26.5957 30.7148C24.9668 28.957 24.1523 26.5664 24.1523 23.543V23.3145ZM29.2324 23.6836C29.2324 25.4883 29.5723 26.8711 30.252 27.832C30.9316 28.7812 31.9043 29.2559 33.1699 29.2559C34.4004 29.2559 35.3613 28.7871 36.0527 27.8496C36.7441 26.9004 37.0898 25.3887 37.0898 23.3145C37.0898 21.5449 36.7441 20.1738 36.0527 19.2012C35.3613 18.2285 34.3887 17.7422 33.1348 17.7422C31.8926 17.7422 30.9316 18.2285 30.252 19.2012C29.5723 20.1621 29.2324 21.6562 29.2324 23.6836ZM44.5078 23.3496C44.5078 20.3848 45.1699 18.0234 46.4941 16.2656C47.8301 14.5078 49.6523 13.6289 51.9609 13.6289C53.8125 13.6289 55.3418 14.3203 56.5488 15.7031V6H61.6465V33H57.0586L56.8125 30.9785C55.5469 32.5605 53.918 33.3516 51.9258 33.3516C49.6875 33.3516 47.8887 32.4727 46.5293 30.7148C45.1816 28.9453 44.5078 26.4902 44.5078 23.3496ZM49.5879 23.7188C49.5879 25.5 49.8984 26.8652 50.5195 27.8145C51.1406 28.7637 52.043 29.2383 53.2266 29.2383C54.7969 29.2383 55.9043 28.5762 56.5488 27.252V19.7461C55.916 18.4219 54.8203 17.7598 53.2617 17.7598C50.8125 17.7598 49.5879 19.7461 49.5879 23.7188ZM75.8848 27.7441C75.8848 27.123 75.5742 26.6367 74.9531 26.2852C74.3438 25.9219 73.3594 25.5996 72 25.3184C67.4766 24.3691 65.2148 22.4473 65.2148 19.5527C65.2148 17.8652 65.9121 16.459 67.3066 15.334C68.7129 14.1973 70.5469 13.6289 72.8086 13.6289C75.2227 13.6289 77.1504 14.1973 78.5918 15.334C80.0449 16.4707 80.7715 17.9473 80.7715 19.7637H75.6914C75.6914 19.0371 75.457 18.4395 74.9883 17.9707C74.5195 17.4902 73.7871 17.25 72.791 17.25C71.9355 17.25 71.2734 17.4434 70.8047 17.8301C70.3359 18.2168 70.1016 18.709 70.1016 19.3066C70.1016 19.8691 70.3652 20.3262 70.8926 20.6777C71.4316 21.0176 72.334 21.3164 73.5996 21.5742C74.8652 21.8203 75.9316 22.1016 76.7988 22.418C79.4824 23.4023 80.8242 25.1074 80.8242 27.5332C80.8242 29.2676 80.0801 30.6738 78.5918 31.752C77.1035 32.8184 75.1816 33.3516 72.8262 33.3516C71.2324 33.3516 69.8145 33.0703 68.5723 32.5078C67.3418 31.9336 66.375 31.1543 65.6719 30.1699C64.9688 29.1738 64.6172 28.1016 64.6172 26.9531H69.4336C69.4805 27.8555 69.8145 28.5469 70.4355 29.0273C71.0566 29.5078 71.8887 29.748 72.9316 29.748C73.9043 29.748 74.6367 29.5664 75.1289 29.2031C75.6328 28.8281 75.8848 28.3418 75.8848 27.7441Z" fill="#35E89D"/>
<path d="M90.5586 23.9824V33H85.2852V7.40625H95.2695C97.1914 7.40625 98.8789 7.75781 100.332 8.46094C101.797 9.16406 102.922 10.166 103.707 11.4668C104.492 12.7559 104.885 14.2266 104.885 15.8789C104.885 18.3867 104.023 20.3672 102.301 21.8203C100.59 23.2617 98.2168 23.9824 95.1816 23.9824H90.5586ZM90.5586 19.7109H95.2695C96.6641 19.7109 97.7246 19.3828 98.4512 18.7266C99.1895 18.0703 99.5586 17.1328 99.5586 15.9141C99.5586 14.6602 99.1895 13.6465 98.4512 12.873C97.7129 12.0996 96.6934 11.7012 95.3926 11.6777H90.5586V19.7109ZM119.58 31.0664C118.326 32.5898 116.592 33.3516 114.377 33.3516C112.338 33.3516 110.779 32.7656 109.701 31.5938C108.635 30.4219 108.09 28.7051 108.066 26.4434V13.9805H113.146V26.2676C113.146 28.248 114.049 29.2383 115.854 29.2383C117.576 29.2383 118.76 28.6406 119.404 27.4453V13.9805H124.502V33H119.721L119.58 31.0664ZM145.473 23.666C145.473 26.7129 144.822 29.0918 143.521 30.8027C142.221 32.502 140.404 33.3516 138.072 33.3516C136.01 33.3516 134.363 32.5605 133.133 30.9785L132.904 33H128.334V6H133.414V15.6855C134.586 14.3145 136.127 13.6289 138.037 13.6289C140.357 13.6289 142.174 14.4844 143.486 16.1953C144.811 17.8945 145.473 20.291 145.473 23.3848V23.666ZM140.393 23.2969C140.393 21.375 140.088 19.9746 139.479 19.0957C138.869 18.2051 137.961 17.7598 136.754 17.7598C135.137 17.7598 134.023 18.4219 133.414 19.7461V27.252C134.035 28.5879 135.16 29.2559 136.789 29.2559C138.43 29.2559 139.508 28.4473 140.023 26.8301C140.27 26.0566 140.393 24.8789 140.393 23.2969ZM153.98 33H148.883V6H153.98V33ZM163.543 33H158.445V13.9805H163.543V33ZM158.146 9.05859C158.146 8.29688 158.398 7.66992 158.902 7.17773C159.418 6.68555 160.115 6.43945 160.994 6.43945C161.861 6.43945 162.553 6.68555 163.068 7.17773C163.584 7.66992 163.842 8.29688 163.842 9.05859C163.842 9.83203 163.578 10.4648 163.051 10.957C162.535 11.4492 161.85 11.6953 160.994 11.6953C160.139 11.6953 159.447 11.4492 158.92 10.957C158.404 10.4648 158.146 9.83203 158.146 9.05859ZM178.045 27.7441C178.045 27.123 177.734 26.6367 177.113 26.2852C176.504 25.9219 175.52 25.5996 174.16 25.3184C169.637 24.3691 167.375 22.4473 167.375 19.5527C167.375 17.8652 168.072 16.459 169.467 15.334C170.873 14.1973 172.707 13.6289 174.969 13.6289C177.383 13.6289 179.311 14.1973 180.752 15.334C182.205 16.4707 182.932 17.9473 182.932 19.7637H177.852C177.852 19.0371 177.617 18.4395 177.148 17.9707C176.68 17.4902 175.947 17.25 174.951 17.25C174.096 17.25 173.434 17.4434 172.965 17.8301C172.496 18.2168 172.262 18.709 172.262 19.3066C172.262 19.8691 172.525 20.3262 173.053 20.6777C173.592 21.0176 174.494 21.3164 175.76 21.5742C177.025 21.8203 178.092 22.1016 178.959 22.418C181.643 23.4023 182.984 25.1074 182.984 27.5332C182.984 29.2676 182.24 30.6738 180.752 31.752C179.264 32.8184 177.342 33.3516 174.986 33.3516C173.393 33.3516 171.975 33.0703 170.732 32.5078C169.502 31.9336 168.535 31.1543 167.832 30.1699C167.129 29.1738 166.777 28.1016 166.777 26.9531H171.594C171.641 27.8555 171.975 28.5469 172.596 29.0273C173.217 29.5078 174.049 29.748 175.092 29.748C176.064 29.748 176.797 29.5664 177.289 29.2031C177.793 28.8281 178.045 28.3418 178.045 27.7441ZM191.229 16.0547C192.576 14.4375 194.27 13.6289 196.309 13.6289C200.434 13.6289 202.525 16.0254 202.584 20.8184V33H197.504V20.959C197.504 19.8691 197.27 19.0664 196.801 18.5508C196.332 18.0234 195.553 17.7598 194.463 17.7598C192.975 17.7598 191.896 18.334 191.229 19.4824V33H186.148V6H191.229V16.0547ZM215.17 33.3516C212.381 33.3516 210.107 32.4961 208.35 30.7852C206.604 29.0742 205.73 26.7949 205.73 23.9473V23.4551C205.73 21.5449 206.1 19.8398 206.838 18.3398C207.576 16.8281 208.619 15.668 209.967 14.8594C211.326 14.0391 212.873 13.6289 214.607 13.6289C217.209 13.6289 219.254 14.4492 220.742 16.0898C222.242 17.7305 222.992 20.0566 222.992 23.0684V25.1426H210.881C211.045 26.3848 211.537 27.3809 212.357 28.1309C213.189 28.8809 214.238 29.2559 215.504 29.2559C217.461 29.2559 218.99 28.5469 220.092 27.1289L222.588 29.9238C221.826 31.002 220.795 31.8457 219.494 32.4551C218.193 33.0527 216.752 33.3516 215.17 33.3516ZM214.59 17.7422C213.582 17.7422 212.762 18.082 212.129 18.7617C211.508 19.4414 211.109 20.4141 210.934 21.6797H218V21.2754C217.977 20.1504 217.672 19.2832 217.086 18.6738C216.5 18.0527 215.668 17.7422 214.59 17.7422ZM225.102 23.3496C225.102 20.3848 225.764 18.0234 227.088 16.2656C228.424 14.5078 230.246 13.6289 232.555 13.6289C234.406 13.6289 235.936 14.3203 237.143 15.7031V6H242.24V33H237.652L237.406 30.9785C236.141 32.5605 234.512 33.3516 232.52 33.3516C230.281 33.3516 228.482 32.4727 227.123 30.7148C225.775 28.9453 225.102 26.4902 225.102 23.3496ZM230.182 23.7188C230.182 25.5 230.492 26.8652 231.113 27.8145C231.734 28.7637 232.637 29.2383 233.82 29.2383C235.391 29.2383 236.498 28.5762 237.143 27.252V19.7461C236.51 18.4219 235.414 17.7598 233.855 17.7598C231.406 17.7598 230.182 19.7461 230.182 23.7188Z" fill="white"/>
</svg>
